<svg xmlns="http://www.w3.org/2000/svg"><defs><symbol id="instagram" viewBox="0 0 20 20"><path d="M17 1H3c-1.1 0-2 .9-2 2v14c0 1.101.9 2 2 2h14c1.1 0 2-.899 2-2V3c0-1.1-.9-2-2-2zM9.984 15.523a5.539 5.539 0 0 0 5.538-5.539c0-.338-.043-.664-.103-.984H17v7.216a.69.69 0 0 1-.693.69H3.693a.69.69 0 0 1-.693-.69V9h1.549c-.061.32-.104.646-.104.984a5.54 5.54 0 0 0 5.539 5.539zM6.523 9.984a3.461 3.461 0 0 1 3.462-3.461 3.461 3.461 0 1 1 0 6.923 3.461 3.461 0 0 1-3.462-3.462zM16.307 6h-1.615A.694.694 0 0 1 14 5.308V3.691c0-.382.31-.691.691-.691h1.615c.384 0 .694.309.694.691v1.616c0 .381-.31.693-.693.693z"/></symbol><symbol id="pinterest" viewBox="0 0 20 20"><path d="M8.617 13.227C8.091 15.981 7.45 18.621 5.549 20c-.586-4.162.861-7.287 1.534-10.605-1.147-1.93.138-5.812 2.555-4.855 2.975 1.176-2.576 7.172 1.15 7.922 3.891.781 5.479-6.75 3.066-9.199C10.369-.275 3.708 3.18 4.528 8.245c.199 1.238 1.478 1.613.511 3.322-2.231-.494-2.897-2.254-2.811-4.6.138-3.84 3.449-6.527 6.771-6.9 4.201-.471 8.144 1.543 8.689 5.494.613 4.461-1.896 9.293-6.389 8.945-1.218-.095-1.728-.699-2.682-1.279z"/></symbol><symbol id="facebook" viewBox="0 0 32 32"><path d="M19 6h5V0h-5c-3.86 0-7 3.14-7 7v3H8v6h4v16h6V16h5l1-6h-6V7c0-.542.458-1 1-1z"/></symbol><symbol id="twitter" viewBox="0 0 32 32"><path d="M32 7.075a12.941 12.941 0 0 1-3.769 1.031 6.601 6.601 0 0 0 2.887-3.631 13.21 13.21 0 0 1-4.169 1.594A6.565 6.565 0 0 0 22.155 4a6.563 6.563 0 0 0-6.563 6.563c0 .512.056 1.012.169 1.494A18.635 18.635 0 0 1 2.23 5.195a6.56 6.56 0 0 0-.887 3.3 6.557 6.557 0 0 0 2.919 5.463 6.565 6.565 0 0 1-2.975-.819v.081a6.565 6.565 0 0 0 5.269 6.437 6.574 6.574 0 0 1-2.968.112 6.588 6.588 0 0 0 6.131 4.563 13.17 13.17 0 0 1-9.725 2.719 18.568 18.568 0 0 0 10.069 2.95c12.075 0 18.681-10.006 18.681-18.681 0-.287-.006-.569-.019-.85A13.216 13.216 0 0 0 32 7.076z"/></symbol></defs></svg>